<svg width="300" height="30" viewBox="0 0 300 30" fill="none" xmlns="http://www.w3.org/2000/svg">
<path d="M18.1341 0.019043H32.1642V5.8442H17.2232C14.5265 5.8442 12.4816 6.30857 11.0886 7.23731C9.19163 8.16752 7.73994 9.96272 6.73355 12.623C6.53009 13.3861 6.41827 14.168 6.40017 14.9544C6.40017 17.2133 7.30405 19.3373 9.11181 21.3267C10.2951 22.3945 11.4063 23.1014 12.4455 23.4471C13.585 23.929 15.1494 24.17 17.1387 24.17H32.1642V29.993H17.843C14.1821 29.993 11.4705 29.5769 9.70808 28.7449C5.76863 27.1335 2.94667 24.4967 1.24222 20.8345C0.410246 18.9863 -0.0122667 16.9994 0.000271073 14.994C0.000271073 10.5319 1.88941 6.72313 5.66769 3.56775C8.14062 1.81134 10.3772 0.774196 12.3775 0.456314C13.4011 0.166265 15.32 0.0205078 18.1341 0.019043ZM15.4225 12.1242H32.1642V17.8857H15.4225V12.1242Z" fill="white"/>
<path d="M53.1227 13.9004V18.2379H36.8765V13.9004H53.1227Z" fill="white"/>
<path d="M54.4863 0.0407715H72.3102C78.7681 0.0407715 83.2498 2.68198 85.7557 7.96439C86.3705 9.47852 86.6795 11.0865 86.6666 12.7063C86.6666 16.222 85.2 19.2983 82.2669 21.9351C80.4592 23.4322 78.2437 24.4445 75.6205 24.9718C74.6049 25.1058 73.58 25.1682 72.5544 25.1586L60.9096 25.2839V29.984H54.4417V19.362H72.0496C74.3473 19.362 76.029 18.9599 77.0949 18.1556C78.4582 17.3383 79.4364 16.0198 80.0295 14.2004C80.1325 13.7835 80.1914 13.3581 80.2056 12.9304V12.3041C80.2056 10.7367 79.4872 9.21176 78.0504 7.72928C76.5541 6.4973 74.8951 5.88057 73.0732 5.87912H54.4863V0.0407715Z" fill="white"/>
<path d="M89.9956 0.0407715H96.4406V14.2048C96.4406 18.1703 98.0627 21.054 101.307 22.8558C102.73 23.7347 104.619 24.1742 106.975 24.1742H122.219V29.9971H107.193C103.124 29.9971 99.8715 29.1995 97.4361 27.6042C96.7583 27.282 95.7388 26.5034 94.3787 25.2685C92.6168 23.411 91.4239 21.5396 90.8009 19.6542C90.2691 18.226 90.0018 16.1803 90.0009 13.517L89.9956 0.0407715Z" fill="white"/>
<path d="M142.977 0H157.767V29.9915H151.351V5.84493L145.618 5.86471H144.24C141.039 5.86471 139.261 5.98996 138.906 6.24045C136.967 6.74116 135.261 7.83107 134.055 9.3387C132.632 11.2431 131.922 13.1357 131.922 15.0167C131.922 17.3459 132.885 19.4882 134.811 21.4439C136.101 22.5953 137.213 23.2882 138.146 23.5225C139.084 23.962 140.691 24.1818 142.968 24.1818H147.428V29.985H142.084C138.114 29.985 134.758 29.0071 132.017 27.0515C130.033 25.5866 128.708 24.2557 128.04 23.0589C126.38 20.592 125.55 18.0687 125.552 15.489V14.6101C125.552 11.0065 126.996 7.69949 129.886 4.68913C131.632 3.10412 133.062 2.10286 134.173 1.68537C135.227 1.1763 136.338 0.778343 137.485 0.498797C138.744 0.166266 140.575 0 142.977 0Z" fill="white"/>
<path d="M174.063 29.9906V25.0817C171.482 24.4356 169.07 23.3029 166.973 21.7527C165.211 20.2702 164.063 19.0361 163.529 18.0502C162.788 16.9359 162.212 15.7325 161.818 14.4729C161.348 13.0872 161.113 11.2011 161.113 8.81479V0.0407715H167.557V9.08721C167.557 11.724 168.106 13.7559 169.202 15.1827C169.422 15.6397 170.133 16.3677 171.333 17.3668C172.992 18.6441 175.074 19.3424 177.223 19.3424C179.37 19.3424 181.453 18.6441 183.112 17.3668C184.312 16.3663 185.023 15.6383 185.245 15.1827C186.341 13.7544 186.889 11.7225 186.889 9.08721V0.0407715H193.334V8.81695C193.334 11.2033 193.098 13.0893 192.629 14.4751C192.249 15.7395 191.672 16.9447 190.918 18.0524C190.385 19.0368 189.245 20.271 187.497 21.7549C185.391 23.3013 182.972 24.4329 180.385 25.0817V29.9906H174.063Z" fill="white"/>
<path d="M214.794 0.019043H228.817V5.8442H213.878C211.183 5.8442 209.14 6.30857 207.746 7.23731C205.849 8.16752 204.397 9.96273 203.391 12.623C203.187 13.3861 203.076 14.168 203.057 14.9544C203.057 17.2133 203.961 19.3373 205.767 21.3267C206.952 22.3945 208.063 23.1014 209.101 23.4471C210.242 23.932 211.807 24.1751 213.796 24.1766H228.821V29.9996H214.5C210.843 29.9996 208.132 29.5835 206.368 28.7515C202.427 27.1401 199.605 24.5033 197.902 20.8411C197.067 18.992 196.644 17.0033 196.658 14.9961C196.658 10.5341 198.546 6.72533 202.323 3.56995C204.801 1.81208 207.04 0.774196 209.04 0.456314C210.062 0.166265 211.98 0.0205078 214.794 0.019043ZM212.085 12.1242H228.817V17.8857H212.085V12.1242Z" fill="white"/>
<path d="M232.217 0.019043H252.794C256.432 0.019043 259.276 1.03788 261.328 3.07554C262.123 3.72672 262.773 4.51823 263.239 5.40473C264.001 6.76154 264.412 8.26682 264.439 9.79944V10.6519C264.439 12.8493 263.421 14.9917 261.387 17.0792C260.083 18.2511 258.898 18.9997 257.832 19.3249C260.528 22.0174 261.875 25.5741 261.875 29.9951H255.41V29.5381C255.41 26.2655 253.995 23.6654 251.165 21.7376C249.55 20.6697 247.437 20.1357 244.826 20.1357H232.217V14.3501H253.193C255.49 14.3501 257.045 13.2895 257.86 11.1684C257.95 10.7289 258.008 10.3773 258.039 10.0873C258.039 8.90802 257.513 7.84011 256.461 6.88353C255.65 6.24935 254.629 5.89696 253.571 5.88595C253.571 5.83102 253.261 5.80245 252.632 5.80245H232.207L232.217 0.019043Z" fill="white"/>
<path d="M277.95 0.0407758H299.526V6.19333H277.748C276.047 6.19333 275.003 6.97632 274.617 8.54228V8.98174C274.617 9.91047 275.172 10.6869 276.283 11.3109C276.623 11.4357 276.985 11.4991 277.349 11.4977H288.301C291.119 11.4977 293.029 11.768 294.035 12.3085C296.525 13.3501 298.246 14.9381 299.199 17.0724C299.715 18.2984 299.987 19.6024 300 20.9199C300 23.9142 298.504 26.4375 295.511 28.4897C294.561 29.0412 293.528 29.4554 292.445 29.718C291.586 29.8982 290.156 29.9884 288.156 29.9884H267.801L267.778 23.8358H289.645C291.482 23.8358 292.656 22.9898 293.166 21.2978L293.211 20.7376C293.211 19.5437 292.584 18.6281 291.332 17.9909C290.799 17.752 290.212 17.6381 289.621 17.659H277.332C274.117 17.659 271.437 16.3407 269.289 13.7038C268.393 12.3769 267.905 10.8439 267.88 9.27399V8.46097C267.88 5.38471 269.481 2.95152 272.682 1.16142C274.002 0.412859 275.757 0.0393109 277.95 0.0407758Z" fill="white"/>
</svg>
